<svg xmlns="http://www.w3.org/2000/svg" xmlns:xlink="http://www.w3.org/1999/xlink" viewBox="0 0 380 214" width="380" height="214" role="img" aria-label="Hospital Management System. A C++ console application modelling hospital branches, doctors and patients as singly linked lists, with insertion, traversal, search and delete by id across each entity, and class-based separation per entity type." preserveAspectRatio="xMidYMid meet">
<title>HOSPITAL MANAGEMENT</title>

<defs>
<linearGradient id="pg" x1="0" y1="0" x2="0.55" y2="1"><stop offset="0" stop-color="#07111F"/><stop offset="0.5" stop-color="#0B1120"/><stop offset="1" stop-color="#050A12"/></linearGradient>
<linearGradient id="ttl" x1="0" y1="0" x2="1" y2="0"><stop offset="0" stop-color="#F8FAFC"/><stop offset="0.55" stop-color="#3B82F6"/><stop offset="1" stop-color="#06B6D4"/></linearGradient>
<linearGradient id="tl" x1="0" y1="0" x2="1" y2="0"><stop offset="0" stop-color="#3B82F6" stop-opacity="0"/><stop offset="0.5" stop-color="#3B82F6" stop-opacity="0.9"/><stop offset="1" stop-color="#3B82F6" stop-opacity="0"/></linearGradient>
<linearGradient id="pk" x1="0" y1="0" x2="1" y2="0"><stop offset="0" stop-color="#3B82F6" stop-opacity="0"/><stop offset="0.6" stop-color="#3B82F6"/><stop offset="1" stop-color="#F8FAFC"/></linearGradient>
<linearGradient id="pkb" x1="1" y1="0" x2="0" y2="0"><stop offset="0" stop-color="#22C55E" stop-opacity="0"/><stop offset="0.6" stop-color="#22C55E"/><stop offset="1" stop-color="#F8FAFC"/></linearGradient>
<radialGradient id="bl1" cx="0.5" cy="0.5" r="0.5"><stop offset="0" stop-color="#3B82F6" stop-opacity="0.15"/><stop offset="1" stop-color="#3B82F6" stop-opacity="0"/></radialGradient>
<radialGradient id="bl2" cx="0.5" cy="0.5" r="0.5"><stop offset="0" stop-color="#06B6D4" stop-opacity="0.13"/><stop offset="1" stop-color="#06B6D4" stop-opacity="0"/></radialGradient>
<pattern id="grid" width="24" height="24" patternUnits="userSpaceOnUse"><path d="M24 0H0V24" fill="none" stroke="#101D30" stroke-width="1"/></pattern>
<filter id="g2" x="-70%" y="-70%" width="240%" height="240%"><feGaussianBlur stdDeviation="2" result="b"/><feMerge><feMergeNode in="b"/><feMergeNode in="SourceGraphic"/></feMerge></filter>
<filter id="g3" x="-70%" y="-70%" width="240%" height="240%"><feGaussianBlur stdDeviation="3" result="b"/><feMerge><feMergeNode in="b"/><feMergeNode in="SourceGraphic"/></feMerge></filter>
<filter id="soft"><feGaussianBlur stdDeviation="30"/></filter>
<style>
text{font-family:ui-monospace,'SFMono-Regular',Menlo,Consolas,'DejaVu Sans Mono',monospace}.sans{font-family:system-ui,-apple-system,'Segoe UI',Roboto,'Helvetica Neue',Arial,sans-serif}
.sw{animation:sw 7s linear infinite}@keyframes sw{from{transform:translateX(-190px)}to{transform:translateX(380px)}}
.led{animation:led 2.4s ease-in-out infinite}@keyframes led{0%,100%{opacity:.35}50%{opacity:1}}
.pn{transform-box:fill-box;transform-origin:center;animation:pn 2.8s ease-in-out infinite}@keyframes pn{0%,100%{opacity:.45;transform:scale(.82)}50%{opacity:1;transform:scale(1.16)}}
.rg{transform-box:fill-box;transform-origin:center;animation:rg 2.8s ease-out infinite}@keyframes rg{0%{opacity:.75;transform:scale(.5)}100%{opacity:0;transform:scale(2.5)}}
.hl{opacity:0;animation:hl 6s ease-in-out infinite}@keyframes hl{0%,100%{opacity:0}5%{opacity:1}18%{opacity:0}}
.chev{animation:chev 6s ease-in-out infinite}@keyframes chev{0%,100%{opacity:.28}9%{opacity:1}24%{opacity:.28}}
.dash{animation:dash 2.4s linear infinite}@keyframes dash{to{stroke-dashoffset:-24}}
.trav{animation:trav 4.4s ease-in-out infinite}@keyframes trav{0%{transform:translateX(0)}25%{transform:translateX(78px)}50%{transform:translateX(156px)}75%{transform:translateX(234px)}100%{transform:translateX(0)}}.nact{animation:nact 4.4s ease-in-out infinite}@keyframes nact{0%,100%{opacity:0}8%{opacity:1}22%{opacity:0}}.ptr{animation:ptr 4.4s ease-in-out infinite}@keyframes ptr{0%,100%{opacity:.3}18%{opacity:1}40%{opacity:.3}}
@media (prefers-reduced-motion:reduce){*{animation:none!important}}
</style></defs>
<rect x="1" y="1" width="378" height="212" rx="12" fill="url(#pg)"/>
<rect x="1" y="1" width="378" height="212" rx="12" fill="url(#grid)" opacity="0.5"/>
<g filter="url(#soft)"><ellipse cx="90" cy="30" rx="200" ry="90" fill="url(#bl1)"/></g>
<rect x="1" y="1" width="378" height="212" rx="12" fill="none" stroke="#243044" stroke-width="1.2"/>
<g><rect class="sw" x="0" y="1" width="190" height="1.5" fill="url(#tl)"/></g>
<rect x="18" y="16" width="3.2" height="20" rx="1.6" fill="#3B82F6"/>
<text x="30" y="31" class="sans" font-size="12.5" font-weight="700" letter-spacing="1.1" fill="#F8FAFC">HOSPITAL MANAGEMENT</text>
<text x="362" y="24" text-anchor="end" font-size="7.5" letter-spacing="1.4" fill="#475569">03 / DATA STRUCTURES</text>
<circle class="led" cx="354" cy="33" r="2.4" fill="#3B82F6"/>
<path d="M18,46 H362" stroke="#1E293B" stroke-width="1"/>
<text x="18" y="62" font-size="7" letter-spacing="0.8" fill="#475569">SINGLY LINKED LIST &#183; TRAVERSAL</text>
<rect x="18" y="82" width="62" height="30" rx="4" fill="#162033" stroke="#243044" stroke-width="1"/>
<path d="M58,82 V112" stroke="#243044" stroke-width="1"/>
<rect class="nact" x="18" y="82" width="62" height="30" rx="4" fill="#3B82F6" fill-opacity="0.16" stroke="#3B82F6" stroke-width="1.3" style="animation-delay:0.00s"/>
<text x="38" y="101" text-anchor="middle" font-size="8" fill="#94A3B8">id</text>
<circle class="ptr" cx="69" cy="97" r="2.6" fill="#06B6D4" style="animation-delay:0.00s"/>
<path d="M80,97 H92" stroke="#06B6D4" stroke-width="1.1" opacity="0.6"/>
<path d="M88,93 l5,4 l-5,4" fill="none" stroke="#06B6D4" stroke-width="1.1" stroke-linecap="round" stroke-linejoin="round" opacity="0.8"/>
<rect x="96" y="82" width="62" height="30" rx="4" fill="#162033" stroke="#243044" stroke-width="1"/>
<path d="M136,82 V112" stroke="#243044" stroke-width="1"/>
<rect class="nact" x="96" y="82" width="62" height="30" rx="4" fill="#3B82F6" fill-opacity="0.16" stroke="#3B82F6" stroke-width="1.3" style="animation-delay:1.10s"/>
<text x="116" y="101" text-anchor="middle" font-size="8" fill="#94A3B8">id</text>
<circle class="ptr" cx="147" cy="97" r="2.6" fill="#06B6D4" style="animation-delay:1.10s"/>
<path d="M158,97 H170" stroke="#06B6D4" stroke-width="1.1" opacity="0.6"/>
<path d="M166,93 l5,4 l-5,4" fill="none" stroke="#06B6D4" stroke-width="1.1" stroke-linecap="round" stroke-linejoin="round" opacity="0.8"/>
<rect x="174" y="82" width="62" height="30" rx="4" fill="#162033" stroke="#243044" stroke-width="1"/>
<path d="M214,82 V112" stroke="#243044" stroke-width="1"/>
<rect class="nact" x="174" y="82" width="62" height="30" rx="4" fill="#3B82F6" fill-opacity="0.16" stroke="#3B82F6" stroke-width="1.3" style="animation-delay:2.20s"/>
<text x="194" y="101" text-anchor="middle" font-size="8" fill="#94A3B8">id</text>
<circle class="ptr" cx="225" cy="97" r="2.6" fill="#06B6D4" style="animation-delay:2.20s"/>
<path d="M236,97 H248" stroke="#06B6D4" stroke-width="1.1" opacity="0.6"/>
<path d="M244,93 l5,4 l-5,4" fill="none" stroke="#06B6D4" stroke-width="1.1" stroke-linecap="round" stroke-linejoin="round" opacity="0.8"/>
<rect x="252" y="82" width="62" height="30" rx="4" fill="#162033" stroke="#243044" stroke-width="1"/>
<path d="M292,82 V112" stroke="#243044" stroke-width="1"/>
<rect class="nact" x="252" y="82" width="62" height="30" rx="4" fill="#3B82F6" fill-opacity="0.16" stroke="#3B82F6" stroke-width="1.3" style="animation-delay:3.30s"/>
<text x="272" y="101" text-anchor="middle" font-size="8" fill="#94A3B8">id</text>
<circle class="ptr" cx="303" cy="97" r="2.6" fill="#06B6D4" style="animation-delay:3.30s"/>
<text x="322" y="101" font-size="8" fill="#475569">NULL</text>
<g class="trav"><path d="M43,124 l-5,8 l10,0 Z" fill="#22C55E"/></g>
<text x="18" y="132" font-size="6.5" letter-spacing="0.8" fill="#475569">traverse</text>
<rect x="18" y="146" width="108" height="20" rx="5" fill="#0B1120" stroke="#243044" stroke-width="1"/>
<circle class="led" cx="29" cy="156" r="2.6" fill="#3B82F6" style="animation-delay:0.00s"/>
<text x="38" y="159.5" font-size="7.5" letter-spacing="0.6" fill="#94A3B8">BRANCHES</text>
<rect x="134" y="146" width="108" height="20" rx="5" fill="#0B1120" stroke="#243044" stroke-width="1"/>
<circle class="led" cx="145" cy="156" r="2.6" fill="#06B6D4" style="animation-delay:0.35s"/>
<text x="154" y="159.5" font-size="7.5" letter-spacing="0.6" fill="#94A3B8">DOCTORS</text>
<rect x="250" y="146" width="108" height="20" rx="5" fill="#0B1120" stroke="#243044" stroke-width="1"/>
<circle class="led" cx="261" cy="156" r="2.6" fill="#22C55E" style="animation-delay:0.70s"/>
<text x="270" y="159.5" font-size="7.5" letter-spacing="0.6" fill="#94A3B8">PATIENTS</text>
<path d="M18,176 H362" stroke="#1E293B" stroke-width="1"/>
<g><rect x="18" y="184" width="46" height="20" rx="5" fill="#0B1120" stroke="#243044" stroke-width="1"/><circle class="led" cx="28" cy="194" r="2.6" fill="#3B82F6" style="animation-delay:0.00s"/><text x="37" y="197.5" font-size="8" letter-spacing="0.7" fill="#94A3B8">C++</text></g>
<g><rect x="72" y="184" width="174" height="20" rx="5" fill="#0B1120" stroke="#243044" stroke-width="1"/><circle class="led" cx="82" cy="194" r="2.6" fill="#3B82F6" style="animation-delay:0.35s"/><text x="91" y="197.5" font-size="8" letter-spacing="0.7" fill="#94A3B8">INSERT / SEARCH / DELETE</text></g>
<text x="18" y="208" font-size="7" letter-spacing="0.4" fill="#64748B">Written as a data structures exercise</text>
</svg>
