<svg xmlns="http://www.w3.org/2000/svg" xmlns:xlink="http://www.w3.org/1999/xlink" viewBox="0 0 380 214" width="380" height="214" role="img" aria-label="Digits Classifier Comparison. A controlled comparison of a support vector machine against a decision tree on the scikit-learn digits dataset: 1,797 samples of 8 by 8 grayscale images with a 70/30 stratified split. SVM reaches 98.89 percent accuracy against the decision tree's 85.28 percent." preserveAspectRatio="xMidYMid meet">
<title>Static (reduced motion): DIGITS CLASSIFIER</title>

<defs>
<linearGradient id="pg" x1="0" y1="0" x2="0.55" y2="1"><stop offset="0" stop-color="#07111F"/><stop offset="0.5" stop-color="#0B1120"/><stop offset="1" stop-color="#050A12"/></linearGradient>
<linearGradient id="ttl" x1="0" y1="0" x2="1" y2="0"><stop offset="0" stop-color="#F8FAFC"/><stop offset="0.55" stop-color="#8B5CF6"/><stop offset="1" stop-color="#3B82F6"/></linearGradient>
<linearGradient id="tl" x1="0" y1="0" x2="1" y2="0"><stop offset="0" stop-color="#8B5CF6" stop-opacity="0"/><stop offset="0.5" stop-color="#8B5CF6" stop-opacity="0.9"/><stop offset="1" stop-color="#8B5CF6" stop-opacity="0"/></linearGradient>
<linearGradient id="pk" x1="0" y1="0" x2="1" y2="0"><stop offset="0" stop-color="#8B5CF6" stop-opacity="0"/><stop offset="0.6" stop-color="#8B5CF6"/><stop offset="1" stop-color="#F8FAFC"/></linearGradient>
<linearGradient id="pkb" x1="1" y1="0" x2="0" y2="0"><stop offset="0" stop-color="#22C55E" stop-opacity="0"/><stop offset="0.6" stop-color="#22C55E"/><stop offset="1" stop-color="#F8FAFC"/></linearGradient>
<radialGradient id="bl1" cx="0.5" cy="0.5" r="0.5"><stop offset="0" stop-color="#8B5CF6" stop-opacity="0.15"/><stop offset="1" stop-color="#8B5CF6" stop-opacity="0"/></radialGradient>
<radialGradient id="bl2" cx="0.5" cy="0.5" r="0.5"><stop offset="0" stop-color="#3B82F6" stop-opacity="0.13"/><stop offset="1" stop-color="#3B82F6" stop-opacity="0"/></radialGradient>
<pattern id="grid" width="24" height="24" patternUnits="userSpaceOnUse"><path d="M24 0H0V24" fill="none" stroke="#101D30" stroke-width="1"/></pattern>
<filter id="g2" x="-70%" y="-70%" width="240%" height="240%"><feGaussianBlur stdDeviation="2" result="b"/><feMerge><feMergeNode in="b"/><feMergeNode in="SourceGraphic"/></feMerge></filter>
<filter id="g3" x="-70%" y="-70%" width="240%" height="240%"><feGaussianBlur stdDeviation="3" result="b"/><feMerge><feMergeNode in="b"/><feMergeNode in="SourceGraphic"/></feMerge></filter>
<filter id="soft"><feGaussianBlur stdDeviation="30"/></filter>
<style>
text{font-family:ui-monospace,'SFMono-Regular',Menlo,Consolas,'DejaVu Sans Mono',monospace}.sans{font-family:system-ui,-apple-system,'Segoe UI',Roboto,'Helvetica Neue',Arial,sans-serif}
.sw{}
.led{}
.pn{transform-box:fill-box;transform-origin:center;}
.rg{transform-box:fill-box;transform-origin:center;}
.hl{opacity:0;}
.chev{}
.dash{}
.px{}.mb{}
@media (prefers-reduced-motion:reduce){*{}}
*{animation:none!important}.tp{transform:none!important}.hl,.stg,.nact,.drop,.scan{opacity:0!important}.tick,.ok{opacity:1!important;transform:none!important}.duty{opacity:0!important}.duty-base{opacity:1!important}.req,.res,.pkt,.bus,.fl,.run,.dp,.up,.dn,.trav,.vec{opacity:0!important}</style></defs>
<rect x="1" y="1" width="378" height="212" rx="12" fill="url(#pg)"/>
<rect x="1" y="1" width="378" height="212" rx="12" fill="url(#grid)" opacity="0.5"/>
<g filter="url(#soft)"><ellipse cx="90" cy="30" rx="200" ry="90" fill="url(#bl1)"/></g>
<rect x="1" y="1" width="378" height="212" rx="12" fill="none" stroke="#243044" stroke-width="1.2"/>
<g><rect class="sw" x="0" y="1" width="190" height="1.5" fill="url(#tl)"/></g>
<rect x="18" y="16" width="3.2" height="20" rx="1.6" fill="#8B5CF6"/>
<text x="30" y="31" class="sans" font-size="12.5" font-weight="700" letter-spacing="1.1" fill="#F8FAFC">DIGITS CLASSIFIER</text>
<text x="362" y="24" text-anchor="end" font-size="7.5" letter-spacing="1.4" fill="#475569">02 / MACHINE LEARNING</text>
<circle class="led" cx="354" cy="33" r="2.4" fill="#8B5CF6"/>
<path d="M18,46 H362" stroke="#1E293B" stroke-width="1"/>
<rect class="px" x="22" y="62" width="9.5" height="9.5" rx="1.6" fill="#243044" fill-opacity="0.55" />
<rect class="px" x="33" y="62" width="9.5" height="9.5" rx="1.6" fill="#243044" fill-opacity="0.55" />
<rect class="px" x="44" y="62" width="9.5" height="9.5" rx="1.6" fill="#8B5CF6" fill-opacity="1" />
<rect class="px" x="55" y="62" width="9.5" height="9.5" rx="1.6" fill="#8B5CF6" fill-opacity="1" />
<rect class="px" x="66" y="62" width="9.5" height="9.5" rx="1.6" fill="#8B5CF6" fill-opacity="1" />
<rect class="px" x="77" y="62" width="9.5" height="9.5" rx="1.6" fill="#8B5CF6" fill-opacity="1" />
<rect class="px" x="88" y="62" width="9.5" height="9.5" rx="1.6" fill="#243044" fill-opacity="0.55" />
<rect class="px" x="99" y="62" width="9.5" height="9.5" rx="1.6" fill="#243044" fill-opacity="0.55" />
<rect class="px" x="22" y="73" width="9.5" height="9.5" rx="1.6" fill="#243044" fill-opacity="0.55" />
<rect class="px" x="33" y="73" width="9.5" height="9.5" rx="1.6" fill="#8B5CF6" fill-opacity="1" />
<rect class="px" x="44" y="73" width="9.5" height="9.5" rx="1.6" fill="#8B5CF6" fill-opacity="1" />
<rect class="px" x="55" y="73" width="9.5" height="9.5" rx="1.6" fill="#243044" fill-opacity="0.55" />
<rect class="px" x="66" y="73" width="9.5" height="9.5" rx="1.6" fill="#243044" fill-opacity="0.55" />
<rect class="px" x="77" y="73" width="9.5" height="9.5" rx="1.6" fill="#8B5CF6" fill-opacity="1" />
<rect class="px" x="88" y="73" width="9.5" height="9.5" rx="1.6" fill="#8B5CF6" fill-opacity="1" />
<rect class="px" x="99" y="73" width="9.5" height="9.5" rx="1.6" fill="#243044" fill-opacity="0.55" />
<rect class="px" x="22" y="84" width="9.5" height="9.5" rx="1.6" fill="#8B5CF6" fill-opacity="1" />
<rect class="px" x="33" y="84" width="9.5" height="9.5" rx="1.6" fill="#8B5CF6" fill-opacity="1" />
<rect class="px" x="44" y="84" width="9.5" height="9.5" rx="1.6" fill="#243044" fill-opacity="0.55" />
<rect class="px" x="55" y="84" width="9.5" height="9.5" rx="1.6" fill="#243044" fill-opacity="0.55" />
<rect class="px" x="66" y="84" width="9.5" height="9.5" rx="1.6" fill="#243044" fill-opacity="0.55" />
<rect class="px" x="77" y="84" width="9.5" height="9.5" rx="1.6" fill="#243044" fill-opacity="0.55" />
<rect class="px" x="88" y="84" width="9.5" height="9.5" rx="1.6" fill="#8B5CF6" fill-opacity="1" />
<rect class="px" x="99" y="84" width="9.5" height="9.5" rx="1.6" fill="#8B5CF6" fill-opacity="1" />
<rect class="px" x="22" y="95" width="9.5" height="9.5" rx="1.6" fill="#8B5CF6" fill-opacity="1" />
<rect class="px" x="33" y="95" width="9.5" height="9.5" rx="1.6" fill="#8B5CF6" fill-opacity="1" />
<rect class="px" x="44" y="95" width="9.5" height="9.5" rx="1.6" fill="#243044" fill-opacity="0.55" />
<rect class="px" x="55" y="95" width="9.5" height="9.5" rx="1.6" fill="#243044" fill-opacity="0.55" />
<rect class="px" x="66" y="95" width="9.5" height="9.5" rx="1.6" fill="#243044" fill-opacity="0.55" />
<rect class="px" x="77" y="95" width="9.5" height="9.5" rx="1.6" fill="#243044" fill-opacity="0.55" />
<rect class="px" x="88" y="95" width="9.5" height="9.5" rx="1.6" fill="#8B5CF6" fill-opacity="1" />
<rect class="px" x="99" y="95" width="9.5" height="9.5" rx="1.6" fill="#8B5CF6" fill-opacity="1" />
<rect class="px" x="22" y="106" width="9.5" height="9.5" rx="1.6" fill="#8B5CF6" fill-opacity="1" />
<rect class="px" x="33" y="106" width="9.5" height="9.5" rx="1.6" fill="#8B5CF6" fill-opacity="1" />
<rect class="px" x="44" y="106" width="9.5" height="9.5" rx="1.6" fill="#243044" fill-opacity="0.55" />
<rect class="px" x="55" y="106" width="9.5" height="9.5" rx="1.6" fill="#243044" fill-opacity="0.55" />
<rect class="px" x="66" y="106" width="9.5" height="9.5" rx="1.6" fill="#243044" fill-opacity="0.55" />
<rect class="px" x="77" y="106" width="9.5" height="9.5" rx="1.6" fill="#243044" fill-opacity="0.55" />
<rect class="px" x="88" y="106" width="9.5" height="9.5" rx="1.6" fill="#8B5CF6" fill-opacity="1" />
<rect class="px" x="99" y="106" width="9.5" height="9.5" rx="1.6" fill="#8B5CF6" fill-opacity="1" />
<rect class="px" x="22" y="117" width="9.5" height="9.5" rx="1.6" fill="#8B5CF6" fill-opacity="1" />
<rect class="px" x="33" y="117" width="9.5" height="9.5" rx="1.6" fill="#8B5CF6" fill-opacity="1" />
<rect class="px" x="44" y="117" width="9.5" height="9.5" rx="1.6" fill="#243044" fill-opacity="0.55" />
<rect class="px" x="55" y="117" width="9.5" height="9.5" rx="1.6" fill="#243044" fill-opacity="0.55" />
<rect class="px" x="66" y="117" width="9.5" height="9.5" rx="1.6" fill="#243044" fill-opacity="0.55" />
<rect class="px" x="77" y="117" width="9.5" height="9.5" rx="1.6" fill="#243044" fill-opacity="0.55" />
<rect class="px" x="88" y="117" width="9.5" height="9.5" rx="1.6" fill="#8B5CF6" fill-opacity="1" />
<rect class="px" x="99" y="117" width="9.5" height="9.5" rx="1.6" fill="#8B5CF6" fill-opacity="1" />
<rect class="px" x="22" y="128" width="9.5" height="9.5" rx="1.6" fill="#243044" fill-opacity="0.55" />
<rect class="px" x="33" y="128" width="9.5" height="9.5" rx="1.6" fill="#8B5CF6" fill-opacity="1" />
<rect class="px" x="44" y="128" width="9.5" height="9.5" rx="1.6" fill="#8B5CF6" fill-opacity="1" />
<rect class="px" x="55" y="128" width="9.5" height="9.5" rx="1.6" fill="#243044" fill-opacity="0.55" />
<rect class="px" x="66" y="128" width="9.5" height="9.5" rx="1.6" fill="#243044" fill-opacity="0.55" />
<rect class="px" x="77" y="128" width="9.5" height="9.5" rx="1.6" fill="#8B5CF6" fill-opacity="1" />
<rect class="px" x="88" y="128" width="9.5" height="9.5" rx="1.6" fill="#8B5CF6" fill-opacity="1" />
<rect class="px" x="99" y="128" width="9.5" height="9.5" rx="1.6" fill="#243044" fill-opacity="0.55" />
<rect class="px" x="22" y="139" width="9.5" height="9.5" rx="1.6" fill="#243044" fill-opacity="0.55" />
<rect class="px" x="33" y="139" width="9.5" height="9.5" rx="1.6" fill="#243044" fill-opacity="0.55" />
<rect class="px" x="44" y="139" width="9.5" height="9.5" rx="1.6" fill="#8B5CF6" fill-opacity="1" />
<rect class="px" x="55" y="139" width="9.5" height="9.5" rx="1.6" fill="#8B5CF6" fill-opacity="1" />
<rect class="px" x="66" y="139" width="9.5" height="9.5" rx="1.6" fill="#8B5CF6" fill-opacity="1" />
<rect class="px" x="77" y="139" width="9.5" height="9.5" rx="1.6" fill="#8B5CF6" fill-opacity="1" />
<rect class="px" x="88" y="139" width="9.5" height="9.5" rx="1.6" fill="#243044" fill-opacity="0.55" />
<rect class="px" x="99" y="139" width="9.5" height="9.5" rx="1.6" fill="#243044" fill-opacity="0.55" />
<text x="22" y="56" font-size="7" letter-spacing="0.8" fill="#475569">8 &#215; 8 GRAYSCALE</text>
<path class="chev" d="M122,101 L127,106 L122,111" fill="none" stroke="#8B5CF6" stroke-width="1.6" stroke-linecap="round" stroke-linejoin="round" />
<text x="146" y="82" font-size="8.5" letter-spacing="0.8" fill="#94A3B8">SVM</text>
<text x="362" y="82" text-anchor="end" font-size="11" font-weight="700" fill="#22C55E">98.89%</text>
<path d="M146,92 h216" stroke="#243044" stroke-width="3.4" stroke-linecap="round"/>
<path class="mb" d="M146,92 h213.6" stroke="#22C55E" stroke-width="3.4" stroke-linecap="round" stroke-dasharray="213.6" style="--l:213.6;"/>
<text x="146" y="108" font-size="6.5" letter-spacing="0.6" fill="#475569">confusion matrix committed</text>
<text x="146" y="126" font-size="8.5" letter-spacing="0.8" fill="#94A3B8">DECISION TREE</text>
<text x="362" y="126" text-anchor="end" font-size="11" font-weight="700" fill="#3B82F6">85.28%</text>
<path d="M146,136 h216" stroke="#243044" stroke-width="3.4" stroke-linecap="round"/>
<path class="mb" d="M146,136 h184.2" stroke="#3B82F6" stroke-width="3.4" stroke-linecap="round" stroke-dasharray="184.2" style="--l:184.2;"/>
<text x="146" y="152" font-size="6.5" letter-spacing="0.6" fill="#475569">comparison plots committed</text>
<path d="M18,156 H362" stroke="#1E293B" stroke-width="1"/>
<g><rect x="18" y="166" width="101" height="20" rx="5" fill="#0B1120" stroke="#243044" stroke-width="1"/><circle class="led" cx="28" cy="176" r="2.6" fill="#8B5CF6" /><text x="37" y="179.5" font-size="8" letter-spacing="0.7" fill="#94A3B8">SCIKIT-LEARN</text></g>
<g><rect x="127" y="166" width="58" height="20" rx="5" fill="#0B1120" stroke="#243044" stroke-width="1"/><circle class="led" cx="137" cy="176" r="2.6" fill="#8B5CF6" /><text x="146" y="179.5" font-size="8" letter-spacing="0.7" fill="#94A3B8">NUMPY</text></g>
<g><rect x="193" y="166" width="89" height="20" rx="5" fill="#0B1120" stroke="#243044" stroke-width="1"/><circle class="led" cx="203" cy="176" r="2.6" fill="#8B5CF6" /><text x="212" y="179.5" font-size="8" letter-spacing="0.7" fill="#94A3B8">MATPLOTLIB</text></g>
<text x="18" y="202" font-size="7.5" letter-spacing="0.4" fill="#64748B">1,797 samples &#183; 70/30 stratified split</text>
</svg>
