<svg xmlns="http://www.w3.org/2000/svg" xmlns:xlink="http://www.w3.org/1999/xlink" viewBox="0 0 580 241" width="580" height="241" role="img" aria-label="MOBILE subsystem. Technologies: Flutter 3.10+, Dart 3.0+, Provider, Hive, Cloud Firestore, Firebase Auth. Flow: ui to provider to local to cloud. Status: local store hive, cloud synced." preserveAspectRatio="xMidYMid meet">
<title>Static (reduced motion): MOBILE subsystem</title>

<defs>
<linearGradient id="pg" x1="0" y1="0" x2="0.5" y2="1"><stop offset="0" stop-color="#0F172A"/><stop offset="1" stop-color="#07111F"/></linearGradient>
<linearGradient id="tl" x1="0" y1="0" x2="1" y2="0"><stop offset="0" stop-color="#06B6D4" stop-opacity="0"/><stop offset="0.5" stop-color="#06B6D4" stop-opacity="0.9"/><stop offset="1" stop-color="#06B6D4" stop-opacity="0"/></linearGradient>
<linearGradient id="sl" x1="0" y1="0" x2="0" y2="1"><stop offset="0" stop-color="#06B6D4" stop-opacity="0"/><stop offset="0.7" stop-color="#06B6D4" stop-opacity="0.07"/><stop offset="1" stop-color="#06B6D4" stop-opacity="0.35"/></linearGradient>
<radialGradient id="bl" cx="0.5" cy="0.5" r="0.5"><stop offset="0" stop-color="#06B6D4" stop-opacity="0.13"/><stop offset="1" stop-color="#06B6D4" stop-opacity="0"/></radialGradient>
<linearGradient id="pkg" x1="0" y1="0" x2="1" y2="0"><stop offset="0" stop-color="#06B6D4" stop-opacity="0"/><stop offset="1" stop-color="#06B6D4"/></linearGradient>
<pattern id="grid" width="22" height="22" patternUnits="userSpaceOnUse"><path d="M22 0H0V22" fill="none" stroke="#101D30" stroke-width="1"/></pattern>
<filter id="cg" x="-70%" y="-70%" width="240%" height="240%"><feGaussianBlur stdDeviation="1.8" result="b"/><feMerge><feMergeNode in="b"/><feMergeNode in="SourceGraphic"/></feMerge></filter>
<filter id="csoft"><feGaussianBlur stdDeviation="22"/></filter>
<style>
text{font-family:ui-monospace,'SFMono-Regular',Menlo,Consolas,'DejaVu Sans Mono',monospace}.sans{font-family:system-ui,-apple-system,'Segoe UI',Roboto,'Helvetica Neue',Arial,sans-serif}
.sw{}
.scan{}
.bt{transform-box:fill-box;transform-origin:center;}
.gp{}
.gr{transform-box:fill-box;transform-origin:center;}
.led{}
.fn{transform-box:fill-box;transform-origin:center;}
.fl{}
.bus{}
@media (prefers-reduced-motion:reduce){*{}}
*{animation:none!important}.tp{transform:none!important}.hl,.stg,.nact,.drop,.scan{opacity:0!important}.tick,.ok{opacity:1!important;transform:none!important}.duty{opacity:0!important}.duty-base{opacity:1!important}.req,.res,.pkt,.bus,.fl,.run,.dp,.up,.dn,.trav,.vec{opacity:0!important}</style></defs>
<rect x="1" y="1" width="578" height="239" rx="12" fill="url(#pg)"/>
<rect x="1" y="1" width="578" height="239" rx="12" fill="url(#grid)" opacity="0.5"/>
<ellipse cx="70" cy="26" rx="200" ry="80" fill="url(#bl)" filter="url(#csoft)"/>
<rect x="1" y="1" width="578" height="239" rx="12" fill="none" stroke="#243044" stroke-width="1.2"/>
<g><rect class="sw" x="0" y="1" width="290" height="1.5" fill="url(#tl)"/></g>
<rect x="22" y="18" width="3.4" height="22" rx="1.7" fill="#06B6D4"/>
<text class="sans" x="36" y="35" font-size="15" font-weight="700" letter-spacing="2" fill="#F8FAFC">MOBILE</text>
<text x="554" y="27" text-anchor="end" font-size="8" letter-spacing="1.6" fill="#475569">SUBSYS 04</text>
<circle class="led" cx="510" cy="38" r="2.8" fill="#06B6D4"/>
<text x="518" y="41" font-size="8" letter-spacing="1.1" fill="#64748B">ONLINE</text>
<rect x="441.5" y="20" width="13" height="20" rx="2.6" fill="none" stroke="#06B6D4" stroke-width="1.2"/><path d="M445.5,22.5 H450.5" stroke="#06B6D4" stroke-width="1" opacity="0.7"/><rect class="gp" x="444" y="27" width="8" height="2" rx="1" fill="#06B6D4"/><rect class="gp" x="444" y="32" width="5" height="2" rx="1" fill="#06B6D4" />
<path d="M22,56 H558" stroke="#1E293B" stroke-width="1"/>
<g class="scan"><rect x="22" y="63" width="536" height="15" fill="url(#sl)"/><rect x="22" y="83" width="536" height="1" fill="#06B6D4" opacity="0.34"/></g>
<rect class="bt" x="26" y="72" width="5" height="5" rx="1.2" fill="#06B6D4" />
<text x="39" y="77" font-size="11" letter-spacing="0.3" fill="#94A3B8">Flutter 3.10+</text>
<path d="M39,82 H178" stroke="#1E293B" stroke-width="0.8" stroke-dasharray="1 4" opacity="0.6"/>
<rect class="bt" x="294" y="72" width="5" height="5" rx="1.2" fill="#06B6D4" />
<text x="307" y="77" font-size="11" letter-spacing="0.3" fill="#94A3B8">Dart 3.0+</text>
<path d="M307,82 H446" stroke="#1E293B" stroke-width="0.8" stroke-dasharray="1 4" opacity="0.6"/>
<rect class="bt" x="26" y="93" width="5" height="5" rx="1.2" fill="#06B6D4" />
<text x="39" y="98" font-size="11" letter-spacing="0.3" fill="#94A3B8">Provider</text>
<path d="M39,103 H178" stroke="#1E293B" stroke-width="0.8" stroke-dasharray="1 4" opacity="0.6"/>
<rect class="bt" x="294" y="93" width="5" height="5" rx="1.2" fill="#06B6D4" />
<text x="307" y="98" font-size="11" letter-spacing="0.3" fill="#94A3B8">Hive</text>
<path d="M307,103 H446" stroke="#1E293B" stroke-width="0.8" stroke-dasharray="1 4" opacity="0.6"/>
<rect class="bt" x="26" y="114" width="5" height="5" rx="1.2" fill="#06B6D4" />
<text x="39" y="119" font-size="11" letter-spacing="0.3" fill="#94A3B8">Cloud Firestore</text>
<path d="M39,124 H178" stroke="#1E293B" stroke-width="0.8" stroke-dasharray="1 4" opacity="0.6"/>
<rect class="bt" x="294" y="114" width="5" height="5" rx="1.2" fill="#06B6D4" />
<text x="307" y="119" font-size="11" letter-spacing="0.3" fill="#94A3B8">Firebase Auth</text>
<path d="M307,124 H446" stroke="#1E293B" stroke-width="0.8" stroke-dasharray="1 4" opacity="0.6"/>
<path d="M22,157 H558" stroke="#1E293B" stroke-width="1"/>
<text x="26" y="184" font-size="7.5" letter-spacing="1.4" fill="#475569">FLOW</text>
<path d="M72,181 H546" stroke="#243044" stroke-width="1" stroke-dasharray="3 4"/>
<circle class="fn" cx="72.0" cy="181" r="3.2" fill="#06B6D4" />
<text x="69.0" y="195" text-anchor="start" font-size="7.5" letter-spacing="0.9" fill="#64748B">UI</text>
<circle class="fn" cx="230.0" cy="181" r="3.2" fill="#06B6D4" />
<text x="230.0" y="195" text-anchor="middle" font-size="7.5" letter-spacing="0.9" fill="#64748B">PROVIDER</text>
<circle class="fn" cx="388.0" cy="181" r="3.2" fill="#06B6D4" />
<text x="388.0" y="195" text-anchor="middle" font-size="7.5" letter-spacing="0.9" fill="#64748B">LOCAL</text>
<circle class="fn" cx="546.0" cy="181" r="3.2" fill="#06B6D4" />
<text x="549.0" y="195" text-anchor="end" font-size="7.5" letter-spacing="0.9" fill="#64748B">CLOUD</text>
<circle class="fl" cx="72" cy="181" r="2.4" fill="#F8FAFC" filter="url(#cg)"/>
<g><rect x="26" y="209" width="133" height="20" rx="5" fill="#0B1120" stroke="#243044" stroke-width="1"/><circle class="led" cx="37" cy="219" r="2.8" fill="#06B6D4" /><text x="47" y="222.5" font-size="8.5" letter-spacing="0.7" fill="#94A3B8">LOCAL STORE: HIVE</text></g>
<g><rect x="168" y="209" width="109" height="20" rx="5" fill="#0B1120" stroke="#243044" stroke-width="1"/><circle class="led" cx="179" cy="219" r="2.8" fill="#06B6D4" /><text x="189" y="222.5" font-size="8.5" letter-spacing="0.7" fill="#94A3B8">CLOUD: SYNCED</text></g>
<text x="554" y="222.5" text-anchor="end" font-size="8.5" letter-spacing="1.1" fill="#475569">6 MODULES</text>
<path d="M14,235 H566" stroke="#1E293B" stroke-width="1" stroke-dasharray="2 5"/>
<rect class="bus" x="-18" y="233.6" width="18" height="2.8" rx="1.4" fill="url(#pkg)" filter="url(#cg)" />
<rect class="bus" x="-18" y="233.6" width="18" height="2.8" rx="1.4" fill="url(#pkg)" filter="url(#cg)" />
</svg>
